<?xml version="1.0" encoding="UTF-8" standalone="no"?>
<!DOCTYPE svg PUBLIC "-//W3C//DTD SVG 1.1//EN" "http://www.w3.org/Graphics/SVG/1.1/DTD/svg11.dtd">
<svg width="100%" height="100%" viewBox="0 0 65 526" version="1.1" xmlns="http://www.w3.org/2000/svg" xmlns:xlink="http://www.w3.org/1999/xlink" xml:space="preserve" xmlns:serif="http://www.serif.com/" style="fill-rule:evenodd;clip-rule:evenodd;">
    <g transform="matrix(6.12323e-17,-1,1,6.12323e-17,-5,533)">
        <path d="M344.993,47.499C341.878,47.874 339.053,47.966 336.227,47.994C331.083,48.045 330.095,48.941 329.007,55.494C334.873,54.796 340.473,54.083 346.086,53.489C347.994,53.288 350.269,52.738 351.775,53.514C353.77,54.542 355.175,56.715 356.834,58.395C354.939,60.247 353.306,62.563 351.075,63.818C348.936,65.021 346.206,65.344 343.686,65.662C338.98,66.257 334.236,66.927 329.51,66.913C323.039,66.892 318.515,63.882 317.706,57.354C309.432,59.682 301.505,62.234 293.416,64.074C288.214,65.257 282.785,65.617 277.435,65.87C275.735,65.95 273.63,64.873 272.278,63.681C265.4,57.615 263.308,48.111 272.18,38.228C279.38,30.207 288.073,24.279 297.29,18.986C300.353,17.227 305.963,19.819 306.972,23.321C307.362,24.675 307.561,26.084 307.979,28.102C295.233,33.489 283.758,40.925 275.734,53.586C284.47,54.949 292.531,52.969 301.249,50.572C300.762,49.131 300.266,47.737 299.821,46.328C299.099,44.042 297.449,41.796 299.957,39.485C302.2,37.419 303.934,36.592 306.969,38.852C310.898,41.778 315.55,43.734 320.251,46.304C322.457,41.542 325.897,37.661 322.501,31.718C320.187,27.667 322.705,24.031 327.395,23.038C335.746,21.27 344.128,19.649 352.511,18.036C353.454,17.855 354.782,17.739 355.429,18.241C363.47,24.478 372.402,20.614 380.574,19.604C388.095,18.674 395.72,18.102 403.236,17.301C412.199,16.346 418.772,27.229 416.927,37.138C416.518,39.333 415.866,41.483 415.066,44.699C419.889,43.649 424.387,43.07 428.546,41.558C430.103,40.992 431.496,38.38 431.879,36.482C432.905,31.398 433.106,26.146 434.152,21.068C434.497,19.392 436.425,18.041 438.133,15.914C440.382,20.903 442.654,24.778 443.903,28.959C446.357,37.168 443.269,44.753 440.343,52.28C439.794,53.692 439.197,55.341 439.423,56.752C440.084,60.882 437.475,65.11 433.354,65.959C430.956,66.453 427.278,62.542 427.042,59.001C426.917,57.135 427.211,55.24 427.333,53.034C420.473,54.196 414.636,56.832 410.973,63.498C410.08,65.123 407.534,66.782 405.799,66.729C404.159,66.68 402.495,64.498 401.002,63.084C397.908,60.152 399.789,56.98 400.604,53.776C402.505,46.309 404.234,38.798 405.969,31.29C406.179,30.377 405.997,29.373 405.997,27.925C401.303,28.355 396.943,28.661 392.616,29.225C391.691,29.345 390.447,30.219 390.098,31.057C386.601,39.471 383.168,47.915 379.973,56.447C379.493,57.729 380.293,59.511 380.567,61.049C380.857,62.67 381.226,64.276 381.561,65.888C379.875,66.196 378.043,67.087 376.529,66.708C371.255,65.389 368.302,57.578 370.591,50.935C372.768,44.619 375.301,38.426 377.599,32.383C371.715,30.262 363.159,36.29 360.778,26.675C351.938,29.197 343.336,31.651 334.735,34.104C334.885,34.736 335.034,35.368 335.184,36C337.61,36 340.147,36.459 342.438,35.903C346.96,34.804 349.331,38.167 352.303,40.18C352.723,40.465 352.353,43.111 351.598,43.699C349.724,45.159 347.416,46.061 344.993,47.499Z" style="fill:white;fill-rule:nonzero;stroke:black;stroke-width:1px;"/>
    </g>
    <g transform="matrix(6.12323e-17,-1,1,6.12323e-17,-5,533)">
        <path d="M122.772,57.725C120.614,60.236 118.992,62.824 116.746,64.639C113.235,67.478 108.553,66.412 105.981,62.446C103.992,59.377 102.303,56.114 100.352,52.712C96.446,56.08 92.997,59.622 89.006,62.381C79.793,68.752 68.975,64.069 68.246,53.067C67.928,48.271 69.945,43.299 71.024,38.435C73.069,29.209 75.828,23.632 81.028,18.595C83.288,20.795 85.568,23.014 87.621,25.013C84.916,34.061 82.327,42.723 79.692,51.54C84.465,51.43 86.716,49.358 93.697,38.776C97.228,33.424 100.612,27.973 104.004,22.657C111.724,26.395 112.757,28.91 110.909,36.492C109.852,40.826 109.25,45.27 108.41,49.847C113.921,50.19 115.528,46.844 116.993,43.633C120.248,36.498 123.197,29.222 126.475,22.098C128.945,16.73 129.72,16.675 133.573,21.127C134.715,22.445 135.523,24.053 135.944,24.7C145.153,22.774 154.224,21.087 163.177,18.912C167.395,17.888 170.922,17.749 174.329,20.956C176.206,22.723 176.932,24.384 174.659,25.684C171.536,27.471 168.113,28.849 164.671,29.935C160.243,31.332 155.656,32.216 151.176,33.462C150.621,33.616 150.308,34.639 149.374,36C152.589,36 155.124,36.458 157.413,35.903C161.932,34.808 164.35,38.092 167.248,40.207C167.659,40.507 166.836,43.986 165.938,44.336C161.956,45.888 157.746,47.734 153.604,47.771C148.479,47.817 145.068,48.799 144.064,55.275C149.609,54.791 155.083,54.712 160.399,53.751C167.53,52.462 168.373,52.531 171.912,58.502C169.561,63.743 164.926,64.773 159.869,65.038C153.647,65.365 147.333,66.521 141.231,65.821C134.31,65.028 130.612,55.294 133.986,48.932C135.712,45.678 137.455,42.42 138.92,39.047C139.395,37.954 139.323,36.386 138.941,35.218C138.451,33.718 137.397,32.403 136.585,31.009C135.668,32.502 134.632,33.937 133.852,35.499C130.206,42.798 126.63,50.133 122.772,57.725Z" style="fill:white;fill-rule:nonzero;stroke:black;stroke-width:1px;"/>
    </g>
    <g transform="matrix(6.12323e-17,-1,1,6.12323e-17,-5,533)">
        <path d="M50.984,36.868C50.595,37.968 50.224,38.656 50.138,38.816C53.36,40.69 56.333,42.419 59.306,44.147C59.372,44.77 59.439,45.393 59.505,46.016C55.567,47.687 51.628,49.358 46.488,51.539C45.637,54.051 44.692,58.168 42.819,61.807C41.898,63.597 38.925,65.851 37.478,65.491C35.369,64.967 32.415,62.355 32.306,60.488C32.116,57.213 33.81,53.828 34.775,50.265L28.183,50.265C26.866,53.558 25.221,57.021 24.106,60.648C23.021,64.173 21.534,66.638 17.413,65.057C12.538,63.186 11.883,61.383 13.881,56.552C14.367,55.376 14.742,54.153 15.357,52.417C10.063,52.906 8.696,48.835 9.293,45.771C10.369,40.258 15.83,42.555 19.792,41.786C20.243,39.697 20.699,37.589 21.164,35.433C13.462,34.538 12.014,32.673 13.966,27.273C15.138,24.031 17.533,23.705 20.287,24.023C24.492,24.509 26.385,22.962 27.186,18.56C27.875,14.778 30.141,11.284 31.771,7.519C37.724,11.318 39.262,16.045 37.365,22.892L44.063,22.892C46.291,17.706 48.489,12.588 51.209,6.255C55.496,12.268 59.729,16.281 56.269,22.425C59.241,24.368 62.286,26.36 65.332,28.351C65.313,28.931 65.295,29.511 65.277,30.091C61.908,31.048 58.582,32.502 55.155,32.806C52.411,33.049 51.473,34.197 50.984,36.868M38.257,39.972C39.315,37.858 40.374,35.744 41.592,33.31C33.14,32.75 33.14,32.75 31.167,41.315C33.421,40.873 35.426,40.479 38.257,39.972Z" style="fill:white;fill-rule:nonzero;stroke:black;stroke-width:1px;"/>
    </g>
    <g transform="matrix(6.12323e-17,-1,1,6.12323e-17,-5,533)">
        <path d="M494.03,30.978C498.724,30.562 501.101,27.768 503.61,24.094C509.487,15.489 514.779,15.334 520.947,23.696C524.307,28.249 528.395,32.898 526.162,39.789C524.386,45.267 519.581,45.939 515.556,47.953C513.468,48.997 511.159,49.598 508.247,50.655C513.043,55.148 518.505,56.112 523.968,56.984C530.133,57.968 532.311,60.687 529.811,65.438C528.977,67.022 525.867,68.456 523.978,68.257C515.717,67.386 508.17,64.325 501.519,59.22C501.178,58.958 500.572,59.04 500.042,58.955C498.865,60.982 498.006,63.253 496.479,64.905C494.218,67.348 491.347,67.375 490.135,64.004C489.132,61.215 488.635,57.887 489.108,54.993C490.402,47.077 492.326,39.263 494.03,30.978M510.262,38.966C511.839,37.483 513.416,35.999 514.993,34.516C513.68,33.188 512.368,31.86 511.014,30.491C508.464,33.856 506.476,36.479 504.489,39.102C504.823,39.447 505.157,39.792 505.491,40.137C506.811,39.758 508.13,39.379 510.262,38.966Z" style="fill:white;fill-rule:nonzero;stroke:black;stroke-width:1px;"/>
    </g>
    <g transform="matrix(6.12323e-17,-1,1,6.12323e-17,-5,533)">
        <path d="M484.096,28.417C477.013,30.267 469.966,31.121 463.727,34.348C463.846,34.898 463.966,35.449 464.085,36C466.178,36 468.359,36.381 470.346,35.923C474.809,34.892 477.56,37.601 480.253,40.186C480.813,40.724 480.398,43.559 479.732,43.88C476.333,45.516 472.788,47.038 469.128,47.879C466.446,48.496 463.508,48 460.463,48C459.387,50.269 458.318,52.521 456.779,55.767C463.736,54.776 469.899,54.212 475.906,52.923C479.411,52.171 481.907,53.53 483.72,55.721C484.56,56.736 484.221,60.328 483.266,60.932C480.111,62.928 476.537,64.936 472.928,65.394C466.575,66.199 459.96,66.674 453.672,65.771C447.537,64.89 444.25,56.661 446.691,50.816C447.37,49.19 448.057,47.527 449.024,46.07C452.401,40.987 454.122,35.629 450.9,29.968C448.865,26.392 450.857,24.968 453.52,24.242C460.627,22.306 467.825,20.699 474.999,19.016C476.88,18.575 478.828,18.42 480.711,17.985C484.574,17.093 486.958,19.744 488.668,22.194C489.126,22.851 485.903,26.076 484.096,28.417Z" style="fill:white;fill-rule:nonzero;stroke:black;stroke-width:1px;"/>
    </g>
    <g transform="matrix(6.12323e-17,-1,1,6.12323e-17,-5,533)">
        <path d="M216.001,50.337C218.283,39.369 225.94,32.758 233.525,26.181C236.652,23.47 240.128,21.118 243.641,18.913C245.123,17.982 247.847,16.881 248.723,17.547C251.137,19.38 255.051,22.987 254.508,24.33C251.757,31.13 257.329,34.993 259.189,39.908C263.096,50.234 264.842,55.955 253.946,61.347C245.885,65.335 237.314,68.317 227.818,66.431C219.77,64.833 214.574,58.629 216.001,50.337M238.124,37.324C232.89,40.838 229.213,45.468 226.799,51.386C225.702,54.076 226.534,54.768 228.63,54.95C236.284,55.616 243.6,54.219 249.946,49.828C251.208,48.955 251.897,45.687 251.325,44.06C250.188,40.831 247.99,37.975 246.174,34.867C243.638,35.535 241.188,36.181 238.124,37.324Z" style="fill:white;fill-rule:nonzero;stroke:black;stroke-width:1px;"/>
    </g>
    <g transform="matrix(6.12323e-17,-1,1,6.12323e-17,-5,533)">
        <path d="M201.23,47.398C200.465,49.233 199.997,50.77 199.315,52.205C197.315,56.416 196.767,60.37 202.406,64.573C199.349,65.605 196.956,67.303 195.336,66.748C192.941,65.928 190.076,63.911 189.194,61.694C185.72,52.963 191.315,45.593 193.764,37.774C194.32,36.001 195.344,34.375 196.478,32C192.58,32 189.324,32.014 186.069,31.997C181.113,31.97 178.12,28.705 179.175,23.818C179.429,22.641 181.73,21.374 183.262,21.098C189.12,20.043 195.026,19.047 200.955,18.642C208.834,18.104 216.755,17.964 224.652,18.071C226.273,18.093 228.309,19.622 229.379,21.041C231.309,23.598 232.385,26.474 227.409,27.12C222.922,27.703 218.445,28.863 213.965,28.851C210.046,28.841 208.331,30.752 207.033,33.798C205.152,38.211 203.296,42.635 201.23,47.398Z" style="fill:white;fill-rule:nonzero;stroke:black;stroke-width:1px;"/>
    </g>
</svg>
